# xmcd CD database file
#
# Track frame offsets:
#	150
#	16650
#	36923
#	57698
#	78785
#	104573
#	122508
#	144493
#	158895
#	183593
#	202268
#	220998
#	235263
#	254418
#
# Disc length: 3624 seconds
#
# Revision: 3
# Processed by: cddbd v1.5.1PL0 Copyright (c) Steve Scherf et al.
# Submitted via: CDex 1.51
#
DISCID=ca0e260e
DTITLE=横山菁児 - 交響組曲 超人機メタルダー
DYEAR=1987
DGENRE=Soundtrack
TTITLE0=跳躍の序章
TTITLE1=柔らかな発光
TTITLE2=焔燃ゆ
TTITLE3=叫魂の宴
TTITLE4=輝きと煌きのあいだ
TTITLE5=鮮やかな鼓動
TTITLE6=骨のヴァイオリン
TTITLE7=狂気の呼吸
TTITLE8=黒想音
TTITLE9=崩壊への煽動
TTITLE10=色彩のない闇へ
TTITLE11=幻体の輪郭
TTITLE12=涙あふれる瞬間
TTITLE13=頭脳改革
EXTD=YEAR: 1987
EXTT0=
EXTT1=
EXTT2=
EXTT3=
EXTT4=
EXTT5=
EXTT6=
EXTT7=
EXTT8=
EXTT9=
EXTT10=
EXTT11=
EXTT12=
EXTT13=
PLAYORDER=
